<?xml version="1.0" standalone="no"?>
<!DOCTYPE svg PUBLIC "-//W3C//DTD SVG 20010904//EN"
 "http://www.w3.org/TR/2001/REC-SVG-20010904/DTD/svg10.dtd">
<svg version="1.0" xmlns="http://www.w3.org/2000/svg"
 width="2560.000000pt" height="1600.000000pt" viewBox="0 0 2560.000000 1600.000000"
 preserveAspectRatio="xMidYMid meet">

<g transform="translate(0.000000,1600.000000) scale(0.100000,-0.100000)"
fill="#000000" stroke="none">
<path d="M0 8000 l0 -8000 12800 0 12800 0 0 8000 0 8000 -12800 0 -12800 0 0
-8000z m10970 718 c116 -50 173 -177 148 -333 -23 -149 -123 -229 -284 -229
-182 0 -284 105 -284 295 0 124 39 204 124 254 82 48 204 53 296 13z m608 11
l52 -10 0 -59 0 -58 -62 20 c-84 26 -173 21 -199 -11 -11 -13 -19 -26 -19 -30
0 -25 35 -44 122 -66 158 -39 192 -71 191 -181 -1 -105 -56 -162 -173 -178
-47 -7 -156 5 -222 24 l-38 11 0 64 0 64 58 -27 c45 -21 72 -27 130 -27 66 0
76 3 93 24 40 49 12 82 -95 107 -142 33 -191 77 -191 172 0 151 121 206 353
161z m-1160 -9 l42 -19 0 -56 c0 -30 -2 -55 -4 -55 -3 0 -22 10 -43 23 -30 17
-53 22 -110 22 -85 0 -116 -17 -150 -85 -45 -87 -20 -213 50 -264 41 -30 155
-29 215 2 l42 22 0 -55 0 -56 -47 -21 c-61 -27 -176 -29 -252 -3 -111 37 -181
143 -181 276 0 131 67 235 177 275 59 21 209 18 261 -6z m-1918 -1 c76 -16
139 -65 175 -134 25 -49 30 -69 30 -134 0 -125 -55 -212 -163 -258 -27 -12
-79 -18 -199 -21 l-163 -4 0 281 0 281 135 0 c73 0 157 -5 185 -11z m646 0
c29 -8 54 -23 74 -46 26 -29 30 -42 30 -89 0 -66 -20 -108 -61 -130 l-31 -16
30 -28 c24 -22 132 -214 132 -235 0 -3 -34 -5 -75 -5 l-75 0 -40 83 c-49 100
-77 127 -131 127 l-39 0 0 -105 0 -105 -70 0 -70 0 0 280 0 280 141 0 c77 0
160 -5 185 -11z m590 -11 c3 -13 49 -137 100 -276 52 -139 94 -255 94 -258 0
-3 -32 -4 -71 -2 l-71 3 -17 45 -17 45 -114 0 -114 0 -17 -45 -17 -45 -71 -3
c-39 -2 -71 0 -71 3 0 4 166 461 197 541 4 10 28 14 93 14 83 0 89 -1 96 -22z
m2474 -208 l0 -230 125 0 125 0 0 -50 0 -50 -199 0 -199 0 -1 280 -1 280 75 0
75 0 0 -230z m490 -50 l0 -280 -70 0 -70 0 0 280 0 280 70 0 70 0 0 -280z
m393 120 c45 -85 90 -168 99 -185 17 -29 17 -24 18 158 l0 187 70 0 70 0 0
-280 0 -280 -82 0 -83 0 -88 169 c-49 93 -95 178 -103 188 -11 15 -13 -8 -14
-169 l0 -188 -70 0 -69 0 0 280 0 281 85 -3 86 -3 81 -155z m547 -40 c0 -124
4 -208 11 -223 24 -54 105 -63 150 -18 l29 29 0 206 0 206 75 0 75 0 0 -180
c0 -261 -19 -322 -113 -369 -39 -19 -63 -24 -131 -23 -122 1 -188 34 -224 112
-12 28 -17 80 -20 248 l-4 212 76 0 76 0 0 -200z m644 110 l59 -90 61 90 61
89 73 1 c39 0 72 -3 72 -7 -1 -5 -41 -66 -90 -137 l-88 -129 87 -131 c48 -72
91 -137 95 -143 5 -10 -10 -13 -67 -13 l-74 0 -63 95 c-34 52 -64 95 -65 95
-1 0 -31 -43 -65 -95 l-63 -95 -73 0 c-41 0 -74 3 -74 6 0 3 42 67 94 142 l94
137 -93 138 -93 137 76 0 77 0 59 -90z m-951 -607 c4 -2 7 -10 7 -18 0 -11
-11 -13 -48 -8 -63 7 -94 -8 -90 -45 3 -23 12 -30 59 -47 78 -28 89 -39 89
-91 0 -62 -24 -84 -94 -84 -67 0 -86 7 -86 31 0 16 3 18 19 9 30 -15 92 -12
113 7 35 32 13 74 -47 89 -55 13 -83 33 -90 63 -9 44 13 84 55 98 31 10 91 8
113 -4z m-5063 -60 l1 -68 62 68 c45 49 69 67 87 67 22 0 19 -5 -34 -59 -66
-67 -67 -56 9 -165 25 -35 45 -67 45 -70 0 -3 -9 -6 -20 -6 -13 0 -36 24 -70
76 -62 92 -80 89 -80 -12 0 -57 -2 -64 -20 -64 -19 0 -20 7 -20 150 0 143 1
150 20 150 18 0 20 -7 20 -67z m250 -56 c0 -132 5 -147 50 -147 48 0 55 13 56
107 3 160 3 163 19 163 16 0 21 -40 17 -165 -3 -102 -8 -114 -48 -131 -42 -18
-82 -11 -113 17 -19 18 -21 30 -21 149 0 123 1 130 20 130 19 0 20 -7 20 -123z
m300 6 c25 -62 49 -113 53 -113 5 0 8 28 7 63 -3 137 -1 167 15 167 13 0 15
-23 15 -150 l0 -150 -24 0 c-20 0 -28 12 -59 88 -68 164 -62 161 -65 30 -2
-110 -4 -118 -22 -118 -19 0 -20 7 -20 151 l0 150 27 -3 c25 -3 32 -14 73
-115z m360 103 c0 -11 -14 -16 -47 -18 -55 -3 -49 14 -52 -160 -1 -101 -2
-108 -21 -108 -19 0 -20 7 -20 135 l0 135 -45 0 c-33 0 -45 4 -45 15 0 12 19
15 115 15 94 0 115 -3 115 -14z m210 -1 c0 -10 -10 -15 -30 -15 l-30 0 0 -120
0 -120 30 0 c20 0 30 -5 30 -15 0 -12 -16 -15 -80 -15 -64 0 -80 3 -80 15 0
10 10 15 30 15 l30 0 0 120 0 120 -30 0 c-20 0 -30 5 -30 15 0 12 16 15 80 15
64 0 80 -3 80 -15z m130 -120 l0 -135 70 0 c56 0 70 -3 70 -15 0 -12 -17 -15
-90 -15 l-90 0 0 150 c0 143 1 150 20 150 19 0 20 -7 20 -135z m345 18 c20
-65 40 -131 46 -147 12 -37 12 -36 -11 -36 -14 0 -22 11 -31 40 l-12 40 -53 0
-53 0 -11 -40 c-8 -29 -16 -40 -30 -40 -23 0 -23 -1 -11 36 6 16 26 82 46 147
33 107 38 117 60 117 22 0 27 -10 60 -117z m185 10 c24 -60 47 -112 52 -117 4
-6 8 43 8 107 0 110 1 117 20 117 19 0 20 -7 20 -150 l0 -150 -27 0 c-26 0
-31 8 -72 111 -25 60 -48 112 -53 115 -4 3 -8 -47 -8 -110 0 -96 -3 -116 -15
-116 -16 0 -16 12 -16 205 0 41 0 80 0 85 1 6 11 10 24 10 21 0 29 -14 67
-107z m317 -38 c23 -77 43 -143 43 -147 0 -5 -8 -8 -18 -8 -13 0 -22 12 -31
40 l-12 40 -53 0 -54 0 -9 -37 c-6 -28 -15 -39 -30 -41 l-22 -3 24 78 c14 43
34 111 46 151 21 67 24 73 47 70 23 -3 29 -15 69 -143z m123 78 l0 -68 61 68
c46 50 68 67 87 67 25 0 23 -4 -31 -58 -31 -32 -57 -61 -57 -66 0 -4 25 -43
55 -86 30 -43 55 -81 55 -84 0 -3 -9 -6 -20 -6 -13 0 -36 24 -70 76 -62 92
-80 89 -80 -12 0 -57 -2 -64 -20 -64 -19 0 -20 7 -20 150 0 143 1 150 20 150
18 0 20 -7 20 -67z m464 45 c3 -13 10 -63 15 -112 6 -49 12 -91 15 -93 2 -2
10 29 17 69 12 62 18 73 36 76 19 3 23 -4 33 -55 19 -96 23 -93 38 25 13 97
18 112 34 112 22 0 22 10 -2 -146 -11 -71 -20 -135 -20 -141 0 -7 -9 -13 -20
-13 -19 0 -27 19 -45 110 -14 67 -22 62 -40 -24 -14 -69 -21 -86 -35 -86 -12
0 -20 10 -24 28 -12 60 -36 223 -36 247 0 32 28 34 34 3z m416 7 c0 -11 -11
-15 -35 -15 l-36 0 3 -117 3 -118 33 -3 c20 -2 32 -9 32 -18 0 -11 -18 -14
-85 -14 -69 0 -85 3 -85 15 0 10 10 15 30 15 l30 0 0 120 0 120 -30 0 c-20 0
-30 5 -30 15 0 12 16 15 85 15 69 0 85 -3 85 -15z m278 -2 c2 -9 -11 -13 -47
-13 l-51 0 0 -135 c0 -128 -1 -135 -20 -135 -19 0 -20 7 -20 135 l0 135 -45 0
c-34 0 -45 4 -45 15 0 13 17 15 112 13 78 -2 113 -7 116 -15z m72 -43 l0 -60
55 0 c50 0 55 2 61 26 4 14 4 41 1 60 -5 29 -3 34 14 34 18 0 19 -8 19 -151 0
-138 -1 -150 -17 -147 -15 3 -19 16 -21 76 l-3 72 -54 0 -55 0 0 -75 c0 -68
-2 -75 -20 -75 -19 0 -20 7 -20 150 0 143 1 150 20 150 18 0 20 -7 20 -60z
m599 45 c57 -29 56 -112 -1 -139 -11 -5 -10 -7 0 -12 11 -5 72 -114 72 -129 0
-3 -8 -5 -18 -5 -12 0 -27 17 -42 51 -27 56 -52 79 -87 79 -22 0 -23 -4 -23
-65 0 -58 -2 -65 -20 -65 -19 0 -20 7 -20 150 l0 150 55 0 c31 0 69 -7 84 -15z
m291 0 c0 -11 -16 -15 -67 -17 l-68 -3 -3 -42 -3 -43 65 0 c52 0 66 -3 66 -15
0 -12 -14 -15 -65 -15 l-65 0 0 -60 0 -60 76 0 c56 0 75 -3 72 -12 -3 -9 -31
-13 -94 -13 l-89 0 -3 148 -3 147 91 0 c72 0 90 -3 90 -15z m128 -64 l25 -74
18 48 c10 26 21 60 24 76 5 24 12 29 36 29 l29 0 0 -151 c0 -138 -1 -150 -17
-147 -16 3 -18 16 -15 128 3 132 -3 143 -32 55 -32 -98 -52 -99 -81 -6 -10 34
-22 64 -27 67 -5 3 -7 -23 -6 -58 5 -126 -1 -188 -17 -188 -13 0 -15 23 -15
151 l0 150 27 -3 c23 -3 29 -12 51 -77z m324 -8 c14 -49 35 -116 46 -150 l20
-63 -23 0 c-19 0 -24 7 -30 40 l-7 41 -56 -3 c-57 -3 -57 -3 -66 -40 -7 -27
-15 -38 -28 -38 -10 0 -18 3 -18 7 0 9 81 276 87 286 2 4 14 7 27 7 19 0 25
-11 48 -87z m558 73 c0 -11 -14 -16 -47 -18 l-48 -3 -1 -70 c-3 -196 -3 -195
-24 -195 -19 0 -20 7 -20 135 l0 135 -45 0 c-33 0 -45 4 -45 15 0 12 19 15
115 15 94 0 115 -3 115 -14z m220 -1 c0 -12 -14 -15 -65 -15 l-65 0 0 -45 0
-45 65 0 c51 0 65 -3 65 -15 0 -12 -14 -15 -65 -15 l-65 0 0 -60 0 -60 70 0
c56 0 70 -3 70 -15 0 -12 -17 -15 -90 -15 l-90 0 0 150 0 150 85 0 c69 0 85
-3 85 -15z m221 -14 c36 -37 38 -73 3 -108 -22 -22 -24 -27 -11 -42 8 -9 27
-40 41 -68 25 -51 26 -53 6 -53 -14 0 -28 17 -50 60 -21 42 -37 61 -55 66 -45
11 -55 0 -55 -66 0 -53 -2 -60 -20 -60 -19 0 -20 7 -20 150 l0 150 66 0 c59 0
68 -3 95 -29z m279 14 c0 -12 -14 -15 -70 -15 l-70 0 0 -45 0 -45 65 0 c51 0
65 -3 65 -15 0 -12 -14 -15 -65 -15 l-65 0 0 -60 0 -60 70 0 c56 0 70 -3 70
-15 0 -12 -17 -15 -90 -15 l-90 0 0 150 0 150 90 0 c73 0 90 -3 90 -15z m185
-1 c64 -30 87 -158 42 -225 -30 -45 -62 -60 -122 -57 l-50 3 1 85 c0 47 2 113
2 148 l2 62 46 0 c25 0 61 -7 79 -16z"/>
<path d="M10767 8622 c-67 -41 -92 -194 -47 -286 48 -101 180 -101 233 -1 29
56 28 166 -2 229 -35 70 -120 98 -184 58z"/>
<path d="M8320 8450 l0 -183 66 6 c84 8 123 31 152 87 42 84 16 202 -54 243
-18 9 -62 20 -98 24 l-66 6 0 -183z"/>
<path d="M8965 8618 c-4 -9 -5 -42 -3 -74 l3 -58 55 2 c41 2 59 8 73 24 23 27
22 71 -3 93 -27 24 -117 33 -125 13z"/>
<path d="M9601 8493 c-18 -54 -35 -104 -38 -110 -3 -10 14 -13 71 -13 52 0 76
4 76 12 0 19 -64 208 -70 208 -3 0 -21 -44 -39 -97z"/>
<path d="M9784 7934 c-9 -33 -19 -65 -21 -71 -4 -9 8 -13 40 -13 l46 0 -19 66
c-11 37 -21 69 -24 71 -3 3 -12 -21 -22 -53z"/>
<path d="M10277 7936 c-9 -35 -17 -69 -17 -75 0 -6 18 -11 41 -11 34 0 40 3
35 18 -3 9 -12 43 -21 75 -9 31 -17 57 -19 57 -1 0 -10 -29 -19 -64z"/>
<path d="M12220 7955 l0 -55 34 0 c19 0 42 7 50 16 38 37 4 94 -56 94 -27 0
-28 -2 -28 -55z"/>
<path d="M12987 7926 c-9 -35 -17 -67 -17 -70 0 -3 18 -6 40 -6 22 0 40 5 40
10 0 20 -33 130 -40 130 -3 0 -14 -29 -23 -64z"/>
<path d="M13947 8003 c-4 -3 -7 -28 -7 -55 l0 -48 40 0 c49 0 76 32 61 72 -11
30 -74 51 -94 31z"/>
<path d="M14435 7998 c-3 -8 -4 -62 -2 -119 l3 -104 33 2 c56 2 75 31 75 113
0 57 -4 74 -19 90 -27 26 -83 37 -90 18z"/>
</g>
</svg>
